<?xml version="1.0" standalone="no"?>
<!DOCTYPE svg PUBLIC "-//W3C//DTD SVG 20010904//EN"
 "http://www.w3.org/TR/2001/REC-SVG-20010904/DTD/svg10.dtd">
<svg version="1.0" xmlns="http://www.w3.org/2000/svg"
 width="406.000000pt" height="215.000000pt" viewBox="0 0 406.000000 215.000000"
 preserveAspectRatio="xMidYMid meet">
<metadata>
Created by potrace 1.15, written by Peter Selinger 2001-2017
</metadata>
<g transform="translate(0.000000,215.000000) scale(0.100000,-0.100000)"
fill="#000000" stroke="none">
<path d="M2170 2095 c0 -9 7 -18 15 -21 9 -4 15 -19 15 -40 0 -24 5 -37 18
-41 29 -11 30 -24 6 -50 -19 -20 -28 -23 -59 -17 -47 9 -95 49 -95 80 0 13 5
24 10 24 6 0 10 7 10 16 0 10 -7 14 -22 12 -20 -3 -23 -10 -26 -55 -3 -44 0
-53 20 -67 22 -16 22 -16 -14 -16 -20 0 -39 4 -42 8 -6 10 -192 9 -202 -1 -4
-4 -18 -7 -31 -7 -18 0 -23 5 -23 25 0 14 -4 25 -10 25 -5 0 -10 9 -10 20 0
16 -7 20 -38 20 -26 0 -41 6 -50 20 -13 21 -42 28 -42 10 0 -5 -4 -10 -9 -10
-6 0 -11 15 -13 33 -2 26 -8 33 -30 35 -34 4 -58 -29 -58 -80 0 -41 -6 -47
-24 -22 -15 20 -63 9 -71 -17 -9 -28 4 -96 21 -110 17 -14 44 -5 44 14 0 8 -9
22 -20 32 -35 32 -26 47 24 40 39 -6 44 -5 49 17 4 12 7 33 7 46 0 30 18 28
26 -4 6 -22 11 -25 35 -20 22 4 29 2 29 -11 0 -13 8 -15 46 -10 l45 5 -3 -31
c-3 -28 -7 -32 -58 -43 -42 -9 -63 -21 -91 -51 -20 -21 -38 -45 -40 -52 -4
-12 -9 -12 -29 -1 l-25 13 23 10 c12 6 22 18 22 29 0 21 -9 22 -45 6 -27 -12
-35 -54 -13 -76 8 -8 4 -14 -18 -23 -16 -7 -46 -31 -67 -53 -36 -37 -40 -39
-52 -23 -18 24 -54 21 -81 -8 -30 -33 -40 -32 -47 5 -6 26 -11 30 -41 30 -37
0 -46 -12 -46 -60 0 -37 -16 -47 -32 -20 -28 45 -85 7 -73 -49 4 -20 16 -31
41 -40 l36 -13 -21 -19 c-20 -19 -29 -59 -13 -59 4 0 6 -16 4 -35 -5 -39 14
-65 47 -65 18 0 21 -6 21 -41 0 -33 3 -40 17 -37 19 3 30 38 32 101 1 30 -2
37 -18 37 -11 0 -23 -4 -26 -10 -3 -5 -13 -10 -22 -10 -14 0 -14 2 1 19 24 27
17 56 -13 55 -23 -1 -22 1 9 26 41 34 36 55 -19 71 -24 7 -41 18 -41 27 0 10
5 12 18 7 9 -4 29 -10 43 -12 25 -5 27 -1 35 42 11 55 25 62 36 18 7 -26 14
-33 34 -33 14 0 37 11 51 25 30 27 45 25 20 -3 -24 -26 -23 -85 0 -80 10 2 23
13 29 26 6 12 20 30 31 39 11 10 46 42 77 71 58 53 70 59 81 42 13 -22 42 -8
75 37 46 61 78 83 128 90 60 8 142 -14 142 -38 0 -25 20 -24 65 2 46 28 95 21
146 -21 60 -48 91 -33 52 26 -34 52 -149 83 -204 54 -14 -8 -26 -7 -46 4 -27
15 -24 15 57 16 80 0 190 -10 287 -26 39 -6 44 -4 77 32 20 22 39 47 42 57 6
18 44 24 44 7 0 -6 14 -19 31 -29 31 -19 31 -19 8 -23 -16 -2 -25 -11 -27 -25
-4 -28 6 -30 173 -37 150 -6 195 -16 282 -57 35 -17 68 -27 73 -24 5 3 7 0 4
-9 -7 -19 27 -29 74 -21 30 5 44 2 65 -15 33 -26 37 -69 7 -77 -24 -6 -21 -26
4 -31 29 -6 46 18 46 63 0 67 -25 90 -97 90 -32 0 -60 2 -63 5 -3 3 -27 17
-55 30 -27 14 -53 29 -56 33 -3 5 -34 13 -67 20 -34 6 -62 15 -62 19 0 5 -17
5 -39 2 -24 -4 -41 -2 -45 5 -4 7 -39 11 -87 11 -64 0 -79 3 -79 15 0 8 -4 15
-10 15 -5 0 -10 5 -10 12 0 6 -15 24 -32 40 -24 22 -42 29 -68 28 -63 -3 -80
8 -80 50 0 25 -5 40 -16 44 -27 10 -44 7 -44 -9z"/>
<path d="M2640 1740 c-19 -5 -47 -22 -62 -39 -59 -66 -22 -181 57 -181 22 0
18 44 -5 65 -28 25 -25 60 8 85 28 22 30 22 130 4 27 -5 32 -3 32 13 0 38 -92
69 -160 53z"/>
<path d="M1720 1715 c-51 -16 -119 -74 -145 -126 -18 -34 -38 -189 -28 -215 3
-8 13 -14 24 -14 30 0 119 -21 119 -28 0 -4 -15 -7 -32 -7 -26 0 -33 -4 -33
-20 0 -18 6 -20 75 -18 l75 3 -55 -16 c-30 -9 -82 -25 -115 -36 -33 -10 -99
-27 -146 -38 -90 -19 -139 -42 -139 -66 0 -8 8 -14 18 -14 15 0 17 -11 19 -83
5 -231 157 -447 347 -493 33 -8 77 -19 96 -24 84 -24 271 -33 414 -21 77 6
143 15 146 19 3 4 14 8 25 9 11 0 60 9 109 18 104 19 166 47 166 74 0 11 9 21
23 24 12 2 30 8 40 12 14 6 17 2 17 -22 0 -16 -8 -35 -17 -43 -43 -37 -296
-119 -390 -127 -68 -6 -73 -7 -73 -29 0 -16 6 -24 18 -24 9 0 -16 -18 -56 -39
-86 -46 -112 -67 -112 -93 0 -23 28 -24 60 -1 l24 17 -22 -31 c-12 -17 -22
-43 -22 -57 0 -41 33 -33 76 19 20 25 63 61 96 81 49 30 59 41 56 59 -4 20 6
27 86 61 50 21 98 43 106 48 8 6 4 -2 -8 -18 -12 -16 -22 -35 -22 -42 0 -8 -8
-14 -18 -14 -10 0 -29 -11 -42 -25 -20 -21 -25 -39 -28 -95 -4 -70 -4 -70 21
-70 22 0 28 6 37 43 15 60 24 72 56 74 16 1 46 5 66 9 21 3 49 3 62 0 21 -5
25 -13 28 -48 2 -29 8 -44 19 -46 11 -2 18 10 25 45 8 40 12 48 30 45 20 -3
59 37 124 126 22 31 57 64 117 112 18 14 21 13 25 -12 2 -17 10 -23 28 -23 21
0 25 5 25 30 0 26 -4 30 -27 30 -20 -1 -28 4 -28 16 0 24 22 39 47 33 18 -5
26 2 44 38 31 60 65 104 132 170 32 32 56 62 52 68 -3 5 0 7 8 4 20 -7 29 10
21 41 -8 33 -34 33 -34 0 0 -14 -4 -25 -9 -25 -10 0 -134 -125 -140 -141 -1
-6 -14 -21 -27 -34 -13 -13 -24 -31 -24 -39 0 -8 -10 -18 -22 -21 -35 -11 -78
-56 -78 -82 0 -13 -6 -23 -14 -23 -8 0 -16 -7 -20 -15 -3 -8 -11 -15 -19 -15
-16 0 -87 -71 -87 -87 0 -7 -6 -16 -14 -20 -7 -4 -18 -18 -24 -29 -7 -14 -25
-24 -51 -28 -26 -4 -41 -12 -43 -23 -3 -14 -17 -17 -95 -17 l-93 -1 0 27 c0
17 8 31 20 38 11 6 20 16 20 23 1 16 36 57 49 57 6 0 11 4 11 9 0 5 11 11 23
15 13 3 36 15 50 27 23 17 27 28 27 69 0 28 -8 64 -19 87 -11 21 -22 51 -26
66 -5 25 -10 28 -38 25 -29 -3 -32 -7 -35 -38 -2 -19 -8 -40 -14 -47 -7 -8 -5
-19 6 -35 22 -31 20 -38 -8 -38 -32 0 -39 12 -24 47 6 15 10 32 9 36 -1 5 3 6
9 2 5 -3 10 -3 10 2 0 4 -13 14 -30 21 -17 8 -30 21 -30 31 0 27 -35 54 -59
46 -15 -5 -21 -2 -21 9 0 9 -4 16 -10 16 -5 0 -10 6 -10 14 0 20 -91 118 -126
136 -16 8 -31 18 -34 21 -7 10 -98 39 -120 39 -10 0 -22 5 -25 10 -8 12 -112
13 -119 1 -3 -5 -27 -12 -52 -16 -34 -5 -48 -12 -51 -26 -6 -22 -40 -25 -90
-7 -27 10 -38 10 -53 0 -11 -7 -32 -12 -48 -12 -15 0 -43 -8 -62 -18 -65 -35
-86 -47 -100 -59 -72 -58 -103 -92 -116 -122 l-15 -35 -23 39 c-14 22 -27 57
-31 78 -4 20 -10 37 -14 37 -4 0 -5 15 -3 34 2 18 -1 37 -7 40 -14 9 -15 86
-1 86 6 0 10 10 10 23 0 14 9 26 25 34 20 9 25 8 25 -3 0 -8 6 -14 13 -14 18
0 80 30 88 43 10 15 21 -47 13 -77 -7 -29 -25 -34 -44 -11 -15 18 -40 20 -40
2 0 -22 24 -46 53 -53 23 -5 29 -3 34 15 3 11 11 21 18 21 13 0 25 43 25 91 0
23 5 30 28 35 15 4 29 10 32 14 3 4 20 11 38 15 28 6 32 4 32 -14 0 -27 16
-27 30 -1 8 15 21 20 49 20 29 0 40 5 43 18 4 15 22 22 81 31 42 7 77 16 79
20 2 4 15 11 31 15 22 5 27 3 27 -12 0 -22 40 -62 61 -62 18 0 62 67 56 85 -3
7 4 18 16 24 23 12 113 9 125 -5 4 -4 1 -4 -6 0 -23 13 -24 -22 -1 -53 39 -52
89 -49 89 5 0 15 6 24 15 24 21 0 19 38 -2 43 -10 3 21 5 69 6 81 1 86 0 81
-19 -3 -11 -2 -31 1 -45 5 -20 12 -25 40 -25 35 0 40 6 55 70 6 22 12 26 66
30 58 5 60 4 60 -18 0 -14 10 -29 26 -39 24 -15 28 -15 52 3 20 15 26 28 27
57 0 28 4 37 17 37 34 0 82 24 92 47 15 32 14 126 -1 141 -22 22 -26 13 -21
-45 7 -75 -10 -95 -98 -117 -36 -9 -73 -16 -82 -16 -9 0 -17 -3 -17 -7 0 -10
-17 -11 -247 -19 -151 -5 -193 -9 -193 -19 0 -8 -4 -17 -10 -20 -6 -4 -7 1 -3
11 6 16 -2 17 -88 11 -99 -7 -267 -48 -281 -69 -5 -8 -8 -3 -8 16 0 27 -1 28
-37 23 -38 -6 -37 -6 17 24 72 39 120 86 120 118 0 32 -51 110 -100 155 -40
36 -121 67 -174 65 -17 0 -51 -7 -76 -14z m153 -59 c38 -16 103 -79 124 -120
15 -29 15 -31 -13 -54 -75 -62 -204 -94 -337 -84 -43 4 -47 6 -52 35 -3 18 1
52 9 77 12 38 14 41 15 17 1 -15 8 -42 17 -58 13 -25 20 -30 47 -27 36 3 34
-9 21 134 l-6 72 28 10 c42 15 109 14 147 -2z m281 -595 c3 -4 24 -11 46 -15
54 -8 146 -59 196 -108 46 -44 97 -135 82 -144 -12 -7 -2 -65 12 -74 6 -4 6
-15 -2 -31 -9 -20 -19 -25 -48 -24 -26 0 -36 4 -33 13 4 8 -7 12 -36 12 -30 0
-41 4 -41 15 0 10 -11 15 -35 15 -19 0 -35 5 -35 10 0 6 -11 10 -24 10 -32 0
-170 31 -176 40 -7 10 -176 40 -224 40 -33 0 -38 -3 -33 -20 3 -10 -1 -24 -9
-31 -16 -13 -19 -55 -4 -64 6 -3 10 -17 10 -30 0 -13 6 -30 13 -37 15 -15 31
-51 20 -46 -49 24 -63 32 -63 40 0 17 -38 7 -52 -14 l-14 -22 -47 23 c-26 13
-54 20 -62 17 -8 -3 -32 12 -57 38 -36 35 -43 49 -42 77 4 65 20 87 124 172
14 12 35 24 100 59 19 10 49 18 67 18 17 0 34 4 38 10 3 5 15 6 28 1 24 -9
155 -31 187 -31 11 0 20 6 20 14 0 10 -16 17 -45 22 -55 8 -50 21 10 30 25 3
48 10 51 15 7 12 71 12 78 0z m-211 -276 c26 -4 47 -12 47 -17 0 -6 11 -8 25
-6 14 3 25 2 25 -2 0 -4 26 -13 58 -19 71 -14 112 -32 112 -48 0 -7 3 -13 8
-13 4 0 12 -11 18 -25 10 -21 9 -24 -9 -27 -15 -2 -24 -14 -32 -43 -16 -62
-20 -65 -88 -64 -34 0 -56 3 -49 6 15 6 16 39 0 49 -6 4 -16 0 -23 -9 -15 -21
-54 -22 -62 -2 -8 23 2 28 27 15 32 -17 53 5 26 26 -29 21 -73 18 -81 -5 -5
-18 -8 -18 -46 -3 -23 9 -44 23 -47 31 -3 9 -12 22 -19 29 -7 7 -13 24 -13 37
0 13 -5 27 -10 30 -18 11 42 75 65 70 11 -2 41 -7 68 -10z"/>
<path d="M3727 1482 c-10 -10 -17 -31 -17 -45 0 -20 -6 -28 -23 -32 -15 -4
-29 -19 -37 -40 -7 -19 -19 -36 -25 -39 -6 -2 -20 -26 -30 -53 -10 -26 -24
-54 -32 -61 -7 -7 -16 -20 -21 -29 -14 -24 -98 -30 -122 -8 -11 10 -20 23 -20
28 0 5 -12 22 -27 36 -24 23 -28 33 -25 74 2 28 -1 47 -7 47 -6 0 -11 9 -11
20 0 11 -7 23 -15 26 -8 4 -15 17 -15 30 0 13 -4 24 -10 24 -5 0 -10 7 -10 15
0 9 -9 15 -25 15 -24 0 -25 -3 -25 -60 0 -33 -4 -60 -10 -60 -5 0 -10 -13 -10
-30 0 -16 4 -30 8 -30 5 0 15 -19 22 -42 6 -24 21 -53 31 -67 10 -13 19 -28
19 -33 0 -5 11 -24 24 -41 20 -27 24 -40 19 -75 -8 -60 19 -57 35 4 13 46 12
48 -28 108 -22 34 -46 69 -54 79 -7 10 -19 39 -26 63 -11 40 -11 47 4 62 16
16 18 16 32 -2 8 -11 14 -41 14 -66 0 -36 7 -56 28 -83 15 -20 33 -34 40 -32
7 3 10 0 6 -6 -10 -16 36 -59 64 -59 31 0 103 20 121 34 7 6 25 34 40 62 82
160 88 168 125 141 18 -13 17 -16 -13 -58 -32 -45 -63 -85 -93 -121 -29 -34
-30 -55 -6 -108 21 -46 48 -67 48 -37 0 29 -22 87 -33 87 -7 0 -4 6 6 14 9 7
17 18 17 24 0 6 10 19 23 29 21 18 40 43 54 72 3 8 15 23 25 33 19 19 24 68 9
84 -13 13 -1 64 15 64 17 0 18 32 2 48 -17 17 -42 15 -61 -6z"/>
<path d="M1318 1271 c-69 -27 -104 -56 -122 -101 -20 -50 -20 -81 -2 -125 17
-40 60 -65 78 -47 9 9 7 23 -10 57 -12 25 -22 53 -22 63 0 34 33 64 106 97 57
26 74 39 74 54 0 27 -36 27 -102 2z"/>
<path d="M1100 1185 c0 -19 4 -35 10 -35 5 0 7 -7 4 -15 -4 -8 -2 -21 4 -28 5
-6 12 -24 16 -39 6 -27 5 -27 -19 -16 -16 7 -29 8 -35 2 -14 -15 -23 -64 -12
-64 6 0 13 -13 17 -30 10 -44 38 -40 33 4 -4 33 -3 34 29 29 26 -4 33 -2 33
10 0 9 -8 18 -17 20 -17 4 -17 5 0 6 21 1 21 5 2 62 -7 24 -19 63 -25 87 -14
53 -40 58 -40 7z"/>
<path d="M890 1183 c0 -14 -7 -34 -15 -43 -20 -22 -31 -80 -16 -80 7 0 9 -9 5
-24 -3 -13 -1 -27 6 -31 7 -4 8 -11 1 -19 -5 -6 -17 -34 -26 -61 -10 -28 -24
-54 -31 -58 -18 -10 -18 -47 -1 -47 21 0 46 33 53 68 4 18 10 32 14 32 18 0
30 66 21 115 -10 53 -6 75 14 75 44 0 45 -88 1 -210 -32 -87 -32 -104 -4 -132
14 -14 23 -38 26 -69 4 -48 5 -49 66 -80 82 -42 133 -79 183 -128 33 -33 48
-41 78 -41 32 0 38 -4 48 -30 6 -17 16 -30 22 -30 28 0 123 -56 196 -115 61
-50 88 -66 105 -62 18 3 26 -3 41 -30 21 -39 47 -40 51 -2 4 36 -32 79 -67 79
-16 0 -36 9 -47 21 -10 12 -54 46 -96 76 -62 43 -82 65 -105 109 -15 30 -38
74 -50 97 -12 23 -22 48 -22 55 -1 6 -5 12 -11 12 -5 0 -10 6 -10 13 0 8 -11
35 -24 60 -13 26 -31 68 -41 95 -21 56 -33 72 -51 72 -16 0 -19 -46 -4 -84 9
-24 8 -25 -16 -14 -21 10 -27 8 -45 -11 -16 -17 -18 -26 -10 -34 9 -9 16 -8
31 1 17 10 22 9 32 -8 16 -25 48 -26 49 -2 0 10 5 6 13 -13 22 -55 59 -130 65
-135 4 -3 13 -21 21 -40 7 -19 20 -44 29 -55 13 -16 13 -18 1 -9 -8 6 -37 11
-63 12 -44 1 -54 7 -110 58 -34 31 -77 63 -94 70 -18 8 -33 18 -33 23 0 5 -22
17 -50 27 -48 17 -50 19 -50 56 0 39 -15 77 -37 91 -17 10 -16 22 1 39 17 18
46 154 46 218 0 30 -6 52 -15 60 -9 7 -15 29 -15 51 0 37 -2 39 -30 39 -26 0
-30 -4 -30 -27z"/>
<path d="M397 1103 c-16 -15 -6 -52 19 -67 22 -15 24 -22 19 -60 -6 -38 -4
-45 26 -74 18 -18 39 -32 46 -32 7 0 13 -4 13 -10 0 -5 25 -26 55 -47 82 -58
76 -88 -27 -137 -45 -22 -61 -25 -82 -16 -15 5 -72 10 -127 9 -88 -1 -99 -3
-99 -19 0 -23 26 -44 45 -36 10 4 15 -1 15 -15 0 -12 8 -23 20 -26 11 -3 20
-9 20 -14 0 -5 14 -9 30 -9 23 0 30 5 30 19 0 14 -8 21 -27 23 -21 2 -29 9
-31 27 -4 24 -3 24 64 18 38 -3 70 -10 72 -16 4 -13 29 -15 34 -2 2 4 30 17
63 28 70 23 87 46 83 112 -2 31 -9 47 -22 55 -11 6 -27 18 -35 26 -9 9 -34 29
-56 45 -21 17 -50 41 -63 54 l-25 25 23 18 c22 18 23 18 64 -19 22 -21 57 -56
76 -79 46 -55 79 -74 129 -74 34 0 41 3 41 20 0 16 -7 20 -34 20 -42 0 -86 16
-86 30 0 16 -122 140 -137 140 -7 0 -13 5 -13 10 0 6 -6 10 -12 10 -7 0 -24
16 -37 35 -22 33 -57 46 -74 28z"/>
<path d="M3900 1092 c0 -4 -21 -14 -46 -21 -25 -8 -48 -20 -51 -27 -6 -16 -33
-19 -33 -4 0 6 -16 10 -35 10 -28 0 -35 -4 -35 -19 0 -15 10 -20 54 -25 48 -6
59 -4 94 19 41 27 112 45 112 28 0 -23 -30 -45 -94 -68 -81 -29 -133 -31 -199
-8 -30 11 -51 14 -55 8 -4 -6 -24 -19 -44 -30 -21 -11 -38 -23 -38 -27 0 -4
-17 -10 -37 -14 -42 -7 -117 -70 -109 -91 3 -6 0 -10 -7 -8 -7 2 -43 -43 -81
-101 -39 -58 -89 -123 -113 -145 -24 -22 -43 -43 -43 -48 0 -5 -4 -11 -8 -13
-7 -3 -81 -127 -126 -213 -12 -22 -24 -42 -27 -45 -3 -3 -14 -21 -24 -40 -10
-19 -26 -46 -36 -59 -11 -13 -19 -32 -19 -43 0 -27 -22 -32 -65 -14 -21 9 -41
16 -46 16 -19 0 -8 -49 13 -64 25 -18 109 -21 137 -6 15 7 23 4 37 -15 16 -21
54 -35 54 -20 0 11 -26 50 -37 58 -7 4 -13 13 -13 18 0 6 -7 17 -15 25 -11 12
-12 20 -3 42 7 15 17 32 22 37 6 6 20 28 31 50 11 22 28 49 38 59 9 11 17 25
17 31 0 6 10 26 23 45 13 19 30 51 37 70 8 19 41 62 75 96 68 70 95 101 95
110 0 4 15 27 33 53 19 25 37 54 40 64 4 9 11 17 17 17 5 0 10 6 10 13 0 25
74 84 123 97 26 7 47 16 47 21 0 19 60 37 97 28 103 -24 247 2 301 54 33 32
39 55 22 88 -8 14 -21 19 -50 19 -22 0 -40 -4 -40 -8z"/>
<path d="M630 615 c-30 -13 -63 -24 -72 -25 -12 0 -18 -8 -18 -21 0 -19 4 -21
40 -16 21 3 53 15 69 27 27 18 36 20 68 11 21 -6 53 -11 71 -11 19 0 40 -8 52
-20 11 -11 29 -20 41 -20 32 0 53 -15 135 -95 41 -41 82 -75 89 -75 34 0 21
26 -52 96 -88 86 -192 144 -259 144 -21 0 -48 7 -58 15 -26 20 -41 19 -106
-10z"/>
<path d="M1620 492 c0 -20 31 -52 70 -72 14 -7 69 -15 123 -18 l99 -5 -4 24
c-3 22 -9 25 -81 32 -51 5 -96 16 -128 32 -58 30 -79 31 -79 7z"/>
<path d="M1127 373 c-14 -13 -6 -24 31 -41 46 -21 53 -31 41 -54 -16 -30 0
-88 27 -100 13 -6 24 -15 24 -20 0 -4 13 -8 29 -8 32 0 101 26 101 38 -2 21
-114 125 -169 156 -66 38 -73 40 -84 29z"/>
</g>
</svg>
